<svg width="26" height="26" viewBox="0 0 26 26" fill="none" xmlns="http://www.w3.org/2000/svg">
<path d="M1 3.11765V22.1765C1 23.7365 2.19333 25 3.66667 25H22.3333C23.8067 25 25 23.7365 25 22.1765V8.05882C25 6.49882 23.8067 5.23529 22.3333 5.23529H3C1.896 5.23529 1 4.28659 1 3.11765V3.11765C1 1.94871 1.896 1 3 1H19.6667" stroke="#FEBF32" stroke-width="2" stroke-linecap="round" stroke-linejoin="round"/>
<path d="M12.6129 14.2903C12.4418 14.2903 12.2777 14.3583 12.1567 14.4793C12.0357 14.6003 11.9677 14.7644 11.9677 14.9355V17.5161C11.9677 17.6872 12.0357 17.8513 12.1567 17.9723C12.2777 18.0933 12.4418 18.1613 12.6129 18.1613C12.784 18.1613 12.9481 18.0933 13.0691 17.9723C13.1901 17.8513 13.2581 17.6872 13.2581 17.5161V14.9355C13.2581 14.7644 13.1901 14.6003 13.0691 14.4793C12.9481 14.3583 12.784 14.2903 12.6129 14.2903ZM12.8581 11.7613C12.701 11.6968 12.5248 11.6968 12.3677 11.7613C12.2885 11.792 12.2162 11.838 12.1548 11.8968C12.0978 11.9595 12.052 12.0315 12.0194 12.1097C11.9832 12.1862 11.9656 12.2702 11.9677 12.3548C11.9672 12.4397 11.9835 12.5239 12.0156 12.6025C12.0477 12.6811 12.095 12.7526 12.1548 12.8129C12.2175 12.8699 12.2896 12.9157 12.3677 12.9484C12.4655 12.9885 12.5716 13.0041 12.6767 12.9936C12.7819 12.9832 12.8829 12.947 12.9708 12.8884C13.0587 12.8298 13.1309 12.7505 13.181 12.6575C13.2311 12.5644 13.2575 12.4605 13.2581 12.3548C13.2557 12.184 13.1889 12.0204 13.071 11.8968C13.0096 11.838 12.9373 11.792 12.8581 11.7613ZM12.6129 8.48387C11.3369 8.48387 10.0895 8.86225 9.02858 9.57116C7.96761 10.2801 7.1407 11.2877 6.65239 12.4666C6.16408 13.6454 6.03632 14.9426 6.28525 16.1941C6.53419 17.4456 7.14865 18.5952 8.05092 19.4975C8.9532 20.3997 10.1028 21.0142 11.3543 21.2631C12.6057 21.5121 13.9029 21.3843 15.0818 20.896C16.2607 20.4077 17.2683 19.5808 17.9772 18.5198C18.6861 17.4588 19.0645 16.2115 19.0645 14.9355C19.0645 14.0882 18.8976 13.2493 18.5734 12.4666C18.2492 11.6838 17.774 10.9726 17.1749 10.3735C16.5758 9.77442 15.8646 9.2992 15.0818 8.97497C14.2991 8.65075 13.4601 8.48387 12.6129 8.48387ZM12.6129 20.0968C11.5921 20.0968 10.5942 19.7941 9.74544 19.2269C8.89667 18.6598 8.23514 17.8537 7.84449 16.9106C7.45385 15.9675 7.35163 14.9298 7.55078 13.9286C7.74993 12.9274 8.2415 12.0077 8.96332 11.2859C9.68514 10.5641 10.6048 10.0725 11.606 9.87337C12.6072 9.67422 13.6449 9.77643 14.588 10.1671C15.5311 10.5577 16.3372 11.2193 16.9044 12.068C17.4715 12.9168 17.7742 13.9147 17.7742 14.9355C17.7742 16.3043 17.2304 17.6171 16.2625 18.5851C15.2946 19.553 13.9818 20.0968 12.6129 20.0968Z" fill="#FEBF32"/>
</svg>
